<?xml version="1.0" standalone="no"?>
<!DOCTYPE svg PUBLIC "-//W3C//DTD SVG 20010904//EN"
 "http://www.w3.org/TR/2001/REC-SVG-20010904/DTD/svg10.dtd">
<svg version="1.0" xmlns="http://www.w3.org/2000/svg"
 width="512.000000pt" height="512.000000pt" viewBox="0 0 512.000000 512.000000"
 preserveAspectRatio="xMidYMid meet">
<metadata>
Created by potrace 1.11, written by Peter Selinger 2001-2013
</metadata>
<g transform="translate(0.000000,512.000000) scale(0.100000,-0.100000)"
fill="#000000" stroke="none">
<path d="M859 5107 c-253 -36 -474 -252 -521 -509 -20 -106 -18 -2426 1 -2508
57 -235 257 -433 486 -481 58 -12 454 -20 456 -9 1 3 3 309 4 680 1 371 5 695
9 720 11 69 25 130 42 180 15 47 101 221 113 230 4 3 23 28 44 57 135 186 402
335 647 360 36 4 361 7 722 7 362 1 659 3 659 6 5 17 4 310 -1 311 -3 1 -592
2 -1310 4 -1189 2 -1309 4 -1349 19 -126 47 -213 170 -212 298 0 68 6 91 31
142 26 53 45 75 102 118 83 63 56 62 1118 63 531 1 970 0 975 -2 7 -2 10 -59
10 -151 -1 -81 0 -152 2 -157 2 -7 59 -10 156 -9 83 1 154 2 157 3 3 0 5 143
5 316 0 173 -2 316 -5 316 -24 6 -2299 2 -2341 -4z"/>
<path d="M2164 3512 c-143 -20 -263 -81 -371 -188 -96 -95 -153 -201 -175
-324 -20 -107 -19 -2427 1 -2510 7 -30 31 -93 53 -139 52 -109 167 -228 273
-283 140 -72 51 -68 1531 -68 l1329 0 0 1275 c0 701 -2 1276 -5 1276 -3 1
-592 2 -1310 4 -1447 2 -1344 -3 -1436 68 -140 107 -167 301 -60 443 38 51 89
88 152 110 45 16 131 18 1024 19 536 1 980 0 985 -2 7 -2 10 -59 10 -151 -1
-81 0 -152 2 -157 4 -13 297 -14 310 -2 9 9 12 626 3 628 -11 3 -2297 4 -2316
1z"/>
</g>
</svg>
